<svg xmlns="http://www.w3.org/2000/svg" viewBox="0 0 193.27 193.27"><defs><style>.cls-1{fill:#fff;stroke:#1d1d1b;}.cls-1,.cls-3{stroke-linecap:round;}.cls-1,.cls-2,.cls-3{stroke-miterlimit:10;stroke-width:5px;}.cls-2,.cls-3,.cls-4{fill:none;}.cls-2,.cls-3{stroke:#000;}</style></defs><title>concepthub</title><g id="Layer_2" data-name="Layer 2"><g id="Layer_2-2" data-name="Layer 2"><polyline class="cls-1" points="116.47 103.83 109.28 111.03 109.28 145.75 133.84 170.32 182.96 121.2 182.96 51.73 158.41 27.16 141.04 44.54 141.03 44.54 133.84 37.33 109.28 61.9 109.28 96.63 116.47 103.83"/><polygon class="cls-1" points="11.09 73.84 11.09 143.31 35.65 167.87 53.02 150.5 60.21 157.7 84.77 133.13 84.77 98.4 77.58 91.2 84.77 84.01 84.77 49.27 60.21 24.71 11.09 73.84"/><polyline class="cls-2" points="109.28 96.64 133.84 72.07 182.97 121.2"/><line class="cls-2" x1="109.28" y1="145.76" x2="133.84" y2="121.2"/><polyline class="cls-2" points="109.28 96.64 133.84 72.07 133.84 37.34"/><line class="cls-2" x1="158.4" y1="61.9" x2="158.4" y2="27.16"/><polyline class="cls-2" points="182.97 121.2 133.84 72.07 133.84 37.34"/><polyline class="cls-2" points="109.28 145.76 133.84 121.2 116.47 103.83"/><polyline class="cls-2" points="158.4 27.16 158.4 61.9 141.03 44.54"/><polyline class="cls-2" points="60.21 143.31 35.65 118.75 11.09 143.31"/><polyline class="cls-2" points="11.09 143.31 35.65 118.75 35.65 84.01 60.21 59.45 60.21 24.71"/><polyline class="cls-2" points="60.21 24.71 60.21 59.45 84.77 84.01"/><polyline class="cls-2" points="84.77 133.13 60.21 108.57 60.21 143.31 53.02 150.5"/><polyline class="cls-3" points="35.65 84.01 60.21 108.57 77.58 91.2"/><rect class="cls-4" width="193.27" height="193.27"/></g></g></svg>