<svg xmlns="http://www.w3.org/2000/svg" viewBox="0 0 55.91 106.51"><defs><style>.cls-1{fill:#fff;}</style></defs><title>4</title><g id="Layer_2" data-name="Layer 2"><g id="Layer_3" data-name="Layer 3"><polygon class="cls-1" points="53.91 20.13 53.91 69.07 19.3 103.68 2 86.38 2 61.91 7.27 56.63 2 51.53 2 26.3 19.3 9.85 23.46 14.85 36.61 2.83 53.91 20.13"/><path id="_4" data-name="4" d="M36.61,0,24.37,12.24,19.3,7.17,0,26.47V52.6l4.24,4.24L0,61.08V87.21l19.3,19.3L55.91,69.9V19.3Zm0,5.66L51.08,20.13,36.61,34.61,22.13,20.13l2.24-2.24,1.42-1.41ZM4.83,61.91,9.9,56.84l9.4-9.41L33.78,61.91,19.3,76.38ZM21.3,43.77V25l13.31,13.3V57.08Zm.24-28.71L17.3,19.3V39.77L4.83,27.3,19.3,12.82ZM4,50.94V32.13L16.48,44.6,7.07,54Zm0,15.8L17.3,80V98.85L4,85.55ZM21.3,98.85V80l17.31-17.3V38.26L51.91,25V68.25Z"/></g></g></svg>