<svg xmlns="http://www.w3.org/2000/svg" viewBox="0 0 20.48 25.28"><defs><style>.cls-1{fill:#fff;}</style></defs><title>logout</title><g id="Layer_2" data-name="Layer 2"><g id="Layer_1-2" data-name="Layer 1"><path class="cls-1" d="M15.57,20.14H14.38a.38.38,0,0,0-.38.38V22a1.36,1.36,0,0,1-1.36,1.36H3.31A1.36,1.36,0,0,1,2,22V3.31A1.36,1.36,0,0,1,3.31,2h9.33A1.36,1.36,0,0,1,14,3.31V4.77a.38.38,0,0,0,.38.37h1.19A.38.38,0,0,0,16,4.77V3.31A3.31,3.31,0,0,0,12.64,0H3.31A3.31,3.31,0,0,0,0,3.31V22a3.31,3.31,0,0,0,3.31,3.31h9.33A3.31,3.31,0,0,0,16,22V20.52A.38.38,0,0,0,15.57,20.14Z"/><path class="cls-1" d="M20.37,12.33,14.58,6.69a.43.43,0,0,0-.27-.1.36.36,0,0,0-.27.12l-.89,1a.37.37,0,0,0,0,.52l3.57,3.33H8.38a.38.38,0,0,0-.38.37v1.44a.38.38,0,0,0,.38.38h8.36l-3.57,3.32a.38.38,0,0,0,0,.53l.89,1a.4.4,0,0,0,.27.12h0a.36.36,0,0,0,.26-.11L20.37,13a.61.61,0,0,0,.11-.35A.39.39,0,0,0,20.37,12.33Z"/></g></g></svg>