<svg xmlns="http://www.w3.org/2000/svg" viewBox="0 0 55.91 106.52"><defs><style>.cls-1{fill:#fff;}</style></defs><title>3 links</title><g id="Layer_2" data-name="Layer 2"><g id="Layer_3" data-name="Layer 3"><g id="_3_links" data-name="3 links"><polygon class="cls-1" points="53.91 44.6 53.91 20.14 53.91 20.14 53.91 20.14 53.91 20.14 36.61 2.83 2 37.44 2 37.44 2 37.44 2 37.44 2 86.38 19.3 103.69 19.47 103.52 31.54 91.45 36.61 96.52 53.91 79.21 53.91 54.75 53.91 54.75 53.91 54.74 53.9 54.74 48.84 49.67 53.91 44.6"/><path d="M55.91,19.31,36.61,0,0,36.61v50.6l19.3,19.31L31.54,94.27l5.07,5.08L55.91,80V53.92l-4.24-4.25,4.24-4.24Zm-4.83.83L35.19,36l-1.41,1.41L47.43,51.09h0l3.65,3.65L36.61,69.22,4.83,37.44,36.61,5.66ZM4,42.27,34.61,72.88V91.69L33,90h0L17.3,74.39V98.86L4,85.55ZM28.71,91.44,21.3,98.86V84Zm9.9.26V72.88l13.3-13.31V78.38ZM48.84,46.84l-9.41-9.4L51.91,25V43.78Z"/></g></g></g></svg>