<svg xmlns="http://www.w3.org/2000/svg" viewBox="0 0 55.91 106.51"><defs><style>.cls-1{fill:#fff;}.cls-2{fill:none;}</style></defs><title>2</title><g id="Layer_2" data-name="Layer 2"><g id="Layer_3" data-name="Layer 3"><g id="_2" data-name="2"><polygon class="cls-1" points="36.61 2.83 19.3 20.13 19.3 44.6 36.61 61.91 36.61 44.6 53.91 69.07 53.91 20.13 36.61 2.83"/><polygon class="cls-1" points="2 61.91 2 86.38 19.3 103.68 19.3 79.21 2 61.91"/><path d="M55.33,18.72,38,1.41H35.19L17.89,18.72a2,2,0,0,0-.59,1.42V44.6L17.89,46l17.3,17.3,3.42-1.41V38.26L51.91,25V69.07a2,2,0,0,0,4,0V20.13A2,2,0,0,0,55.33,18.72ZM34.61,57.08,21.3,43.77V25l13.31,13.3Zm2-22.47L22.13,20.13,36.61,5.66,51.08,20.13Z"/><path d="M3.41,60.49,0,61.91V86.38l.59,1.41,17.3,17.31,3.41-1.42V79.21l-.58-1.41ZM17.3,98.85,4,85.55V66.74L17.3,80Z"/><rect class="cls-2" width="55.91" height="106.51"/></g></g></g></svg>