<svg version="1" xmlns="http://www.w3.org/2000/svg" width="933.333" height="933.333" viewBox="0 0 700.000000 700.000000"><path d="M124.2 170.3L31 263.5v259l49 49 49 49 31.5-31.5 31.5-31.5 13.3 13.3 13.2 13.2 48.8-48.8 48.7-48.7v-134l-11-11-11-11 11-11 11-11v-134l-48.8-48.8C240.4 98.9 218.3 77 218 77c-.3 0-42.5 42-93.8 93.3zm40.3 85.7L120 300.5v126l-34.7 34.7C66.1 480.4 50.2 496 49.8 496c-.5 0-.8-50.5-.8-112.2V271.5l79.8-79.8 79.7-79.7.3 49.7.2 49.8-44.5 44.5zM298 232.5v50L262.5 247 227 211.5v-100l35.5 35.5 35.5 35.5v50zm-41.7 34.3l37.7 37.7-38 38-38 38-38-38-38-38 37.7-37.7c20.8-20.8 38-37.8 38.3-37.8.3 0 17.5 17 38.3 37.8zM209 447.5v50L173.5 462 138 426.4v-99.9l35.5 35.5 35.5 35.5v50zm80.7-95.3l8.3 8.3v100L264.5 427 231 393.5l24.7-24.7c13.7-13.7 25-24.8 25.3-24.8.2 0 4.2 3.7 8.7 8.2zM256 520.5l-38 38-6.5-6.5-6.5-6.5 11-11 11-11v-108l33.5 33.5 33.5 33.5-38 38zm-88.7 36.7L129 595.5l-38-38-38-38 38.2-38.2 38.3-38.3 38 38 38 38-38.2 38.2zM542.3 117.2L511 148.5l-13-13-13-13-49 49-49 49v134l11 11 11 11-11 11-11 11v133l49 49 49 49 93.5-93.5 93.5-93.5v-259l-48.8-48.8C596.4 107.9 574.3 86 574 86c-.3 0-14.6 14.1-31.7 31.2zm21.7 44v40.3l-20.2-20.2-20.3-20.3 20-20c11-11 20.1-20 20.2-20 .2 0 .3 18.1.3 40.2zm90 142.5c0 61.8-.3 112.3-.7 112.3-.5 0-36.5-35.7-80-79.2L494 257.5v-100l44.5 44.5 44.5 44.5v-126l35.5 35.5 35.5 35.5v112.2zm-214-11.2l-35 35v-100l34.8-34.8 34.7-34.7.3 49.7.2 49.8-35 35zm127 229L484.5 604l-38-38-38-38 44.5-44.5 44.5-44.5-44.5-44.5-44.5-44.5 38-38 38-38 82.5 82.5 82.5 82.5-82.5 82.5zm-128.8-49.3L405 505.5v-100l8.2-8.2 8.3-8.3 25 25 25 25-33.3 33.2z"/></svg>